<svg width="25" height="25" viewBox="0 0 25 25" fill="none" xmlns="http://www.w3.org/2000/svg">
<path fill-rule="evenodd" clip-rule="evenodd" d="M9.82043 2.62183C9.86562 2.62185 9.91147 2.62188 9.95801 2.62188L17.1993 2.62188C18.0043 2.62186 18.6686 2.62185 19.2098 2.66607C19.7719 2.712 20.2886 2.81056 20.774 3.05785C21.5266 3.44134 22.1385 4.05327 22.522 4.80592C22.7693 5.29125 22.8679 5.80795 22.9138 6.37005C22.958 6.91124 22.958 7.57559 22.958 8.38055V16.8632C22.958 17.6682 22.958 18.3325 22.9138 18.8737C22.8679 19.4358 22.7693 19.9525 22.522 20.4378C22.1385 21.1905 21.5266 21.8024 20.774 22.1859C20.2886 22.4332 19.7719 22.5318 19.2098 22.5777C18.6686 22.6219 18.0043 22.6219 17.1993 22.6219H9.95801C9.91147 22.6219 9.86562 22.6219 9.82043 22.6219C9.02505 22.6224 8.43438 22.6227 7.92273 22.4856C6.54236 22.1157 5.46417 21.0375 5.09431 19.6572C4.95721 19.1455 4.95753 18.5548 4.95796 17.7595C4.95798 17.7143 4.95801 17.6684 4.95801 17.6219C4.95801 17.0696 5.40572 16.6219 5.95801 16.6219C6.51029 16.6219 6.95801 17.0696 6.95801 17.6219C6.95801 18.6162 6.9666 18.9172 7.02616 19.1395C7.21109 19.8297 7.75019 20.3688 8.44037 20.5537C8.66265 20.6133 8.96365 20.6219 9.95801 20.6219H17.158C18.0146 20.6219 18.5969 20.6211 19.047 20.5843C19.4854 20.5485 19.7096 20.4836 19.866 20.4039C20.2423 20.2121 20.5483 19.9062 20.74 19.5299C20.8197 19.3735 20.8846 19.1493 20.9205 18.7108C20.9572 18.2608 20.958 17.6785 20.958 16.8219V8.42188C20.958 7.5653 20.9572 6.983 20.9205 6.53291C20.8846 6.0945 20.8197 5.8703 20.74 5.7139C20.5483 5.33757 20.2423 5.03161 19.866 4.83986C19.7096 4.76017 19.4854 4.69525 19.047 4.65943C18.5969 4.62265 18.0146 4.62188 17.158 4.62188H9.95801C8.96365 4.62188 8.66265 4.63047 8.44037 4.69003C7.75019 4.87496 7.21109 5.41405 7.02616 6.10424C6.9666 6.32652 6.95801 6.62752 6.95801 7.62188C6.95801 8.17416 6.51029 8.62188 5.95801 8.62188C5.40572 8.62188 4.95801 8.17416 4.95801 7.62188C4.95801 7.57534 4.95798 7.52949 4.95796 7.4843C4.95753 6.68891 4.95721 6.09825 5.0943 5.5866C5.46417 4.20623 6.54236 3.12804 7.92273 2.75817C8.43438 2.62108 9.02504 2.6214 9.82043 2.62183ZM12.2509 7.91477C12.6414 7.52425 13.2746 7.52425 13.6651 7.91477L17.6651 11.9148C18.0556 12.3053 18.0556 12.9385 17.6651 13.329L13.6651 17.329C13.2746 17.7195 12.6414 17.7195 12.2509 17.329C11.8604 16.9385 11.8604 16.3053 12.2509 15.9148L14.5438 13.6219H3.95801C3.40572 13.6219 2.95801 13.1742 2.95801 12.6219C2.95801 12.0696 3.40572 11.6219 3.95801 11.6219H14.5438L12.2509 9.32898C11.8604 8.93846 11.8604 8.30529 12.2509 7.91477Z" fill="#3FA34D"/>
</svg>
