<svg width="24" height="24" viewBox="0 0 24 24" fill="none" xmlns="http://www.w3.org/2000/svg">
<path fill-rule="evenodd" clip-rule="evenodd" d="M21.9635 3.26767C22.06 2.92028 21.9621 2.54785 21.7071 2.29292C21.4522 2.03798 21.0798 1.94001 20.7324 2.03651L2.73239 7.0365C2.36334 7.13902 2.08526 7.44333 2.01635 7.8201C1.94744 8.19688 2.09979 8.57992 2.40867 8.80642L8.96866 13.6171L8.29282 14.2929C7.90229 14.6834 7.90229 15.3166 8.29282 15.7071C8.68334 16.0977 9.31651 16.0977 9.70703 15.7071L10.3829 15.0313L15.1936 21.5914C15.4201 21.9003 15.8032 22.0526 16.1799 21.9837C16.5567 21.9148 16.861 21.6367 16.9635 21.2677L21.9635 3.26767ZM15.588 18.7471L11.8138 13.6005L19.0191 6.39521L15.588 18.7471ZM10.3996 12.1863L17.6048 4.98099L5.25293 8.41208L10.3996 12.1863Z" fill="white"/>
</svg>
